<svg width="30" height="30" viewBox="0 0 30 30" fill="none" xmlns="http://www.w3.org/2000/svg">
<rect width="30" height="30" rx="7" fill="#8E8E93"/>
<path d="M14.9336 25.6348C13.5404 25.6348 12.2285 25.3678 10.998 24.834C9.76758 24.3066 8.68359 23.5742 7.74609 22.6367C6.80859 21.6992 6.07292 20.6185 5.53906 19.3945C5.01172 18.1641 4.74805 16.849 4.74805 15.4492C4.74805 14.056 5.01172 12.7474 5.53906 11.5234C6.07292 10.293 6.80534 9.20898 7.73633 8.27148C8.67383 7.33398 9.75781 6.60156 10.9883 6.07422C12.2188 5.54036 13.5306 5.27344 14.9238 5.27344C16.3171 5.27344 17.6289 5.54036 18.8594 6.07422C20.0964 6.60156 21.1803 7.33398 22.1113 8.27148C23.0488 9.20898 23.7845 10.293 24.3184 11.5234C24.8522 12.7474 25.1191 14.056 25.1191 15.4492C25.1191 16.849 24.8522 18.1641 24.3184 19.3945C23.7845 20.6185 23.0488 21.6992 22.1113 22.6367C21.1803 23.5742 20.0996 24.3066 18.8691 24.834C17.6387 25.3678 16.3268 25.6348 14.9336 25.6348ZM14.6992 17.4316C14.9987 17.4316 15.2396 17.36 15.4219 17.2168C15.6107 17.0671 15.7148 16.8848 15.7344 16.6699C15.7409 16.6504 15.7441 16.6309 15.7441 16.6113C15.7441 16.5853 15.7474 16.5658 15.7539 16.5527C15.7799 16.2988 15.8841 16.0775 16.0664 15.8887C16.2552 15.6999 16.5059 15.5046 16.8184 15.3027C17.3262 14.9772 17.7233 14.6419 18.0098 14.2969C18.3027 13.9453 18.4492 13.4798 18.4492 12.9004C18.4492 12.334 18.293 11.849 17.9805 11.4453C17.668 11.0417 17.2513 10.7324 16.7305 10.5176C16.2161 10.2962 15.6465 10.1855 15.0215 10.1855C14.1426 10.1855 13.4134 10.3548 12.834 10.6934C12.2611 11.0254 11.8867 11.4355 11.7109 11.9238C11.6784 12.015 11.6523 12.1061 11.6328 12.1973C11.6133 12.2884 11.6035 12.3828 11.6035 12.4805C11.6035 12.7409 11.6914 12.9525 11.8672 13.1152C12.043 13.278 12.2513 13.3594 12.4922 13.3594C12.6875 13.3594 12.8568 13.3203 13 13.2422C13.1432 13.1641 13.2669 13.0566 13.3711 12.9199L13.5078 12.7246C13.625 12.5488 13.752 12.4056 13.8887 12.2949C14.0254 12.1777 14.1719 12.0898 14.3281 12.0312C14.4909 11.9727 14.6667 11.9434 14.8555 11.9434C15.2266 11.9434 15.5293 12.0443 15.7637 12.2461C15.998 12.4479 16.1152 12.7051 16.1152 13.0176C16.1152 13.3301 16.0078 13.5872 15.793 13.7891C15.5781 13.9844 15.2591 14.2253 14.8359 14.5117C14.4779 14.7656 14.1816 15.0358 13.9473 15.3223C13.7194 15.6022 13.6055 15.9603 13.6055 16.3965C13.6055 16.416 13.6055 16.4355 13.6055 16.4551C13.6055 16.4681 13.6055 16.4811 13.6055 16.4941C13.6055 17.1191 13.9701 17.4316 14.6992 17.4316ZM14.6895 20.625C15.041 20.625 15.3405 20.5176 15.5879 20.3027C15.8353 20.0814 15.959 19.7982 15.959 19.4531C15.959 19.1146 15.8353 18.8346 15.5879 18.6133C15.3405 18.3919 15.041 18.2812 14.6895 18.2812C14.3314 18.2812 14.0286 18.3919 13.7812 18.6133C13.5339 18.8346 13.4102 19.1146 13.4102 19.4531C13.4102 19.7982 13.5339 20.0814 13.7812 20.3027C14.0352 20.5176 14.3379 20.625 14.6895 20.625Z" fill="white"/>
</svg>
