<svg width="30" height="30" viewBox="0 0 30 30" fill="none" xmlns="http://www.w3.org/2000/svg">
<rect width="30" height="30" rx="7" fill="#5856D6"/>
<path d="M14.9336 24.6484C14.237 24.6484 13.5827 24.4173 12.9707 23.9551C12.3652 23.4928 11.8314 22.8483 11.3691 22.0215C10.9134 21.1882 10.5521 20.2148 10.2852 19.1016C10.0247 17.9818 9.89453 16.7708 9.89453 15.4688C9.89453 14.1667 10.0247 12.9557 10.2852 11.8359C10.5521 10.7161 10.9134 9.73958 11.3691 8.90625C11.8249 8.06641 12.3587 7.41536 12.9707 6.95312C13.5827 6.49089 14.237 6.25977 14.9336 6.25977C15.6302 6.25977 16.2812 6.49089 16.8867 6.95312C17.4987 7.41536 18.0358 8.06641 18.498 8.90625C18.9603 9.73958 19.3216 10.7161 19.582 11.8359C19.8424 12.9557 19.9727 14.1667 19.9727 15.4688C19.9727 16.7708 19.8392 17.9818 19.5723 19.1016C19.3118 20.2148 18.9505 21.1882 18.4883 22.0215C18.026 22.8483 17.4922 23.4928 16.8867 23.9551C16.2812 24.4173 15.6302 24.6484 14.9336 24.6484ZM14.9336 7.59766C14.4714 7.59766 14.0254 7.80924 13.5957 8.23242C13.166 8.6556 12.7819 9.23503 12.4434 9.9707C12.1048 10.7064 11.8379 11.5462 11.6426 12.4902C11.4473 13.4342 11.3496 14.4271 11.3496 15.4688C11.3496 16.5039 11.4473 17.4902 11.6426 18.4277C11.8379 19.3652 12.1048 20.2018 12.4434 20.9375C12.7819 21.6667 13.166 22.2428 13.5957 22.666C14.0254 23.0957 14.4714 23.3105 14.9336 23.3105C15.3958 23.3105 15.8418 23.0957 16.2715 22.666C16.7012 22.2428 17.0853 21.6667 17.4238 20.9375C17.7624 20.2018 18.0293 19.3652 18.2246 18.4277C18.4199 17.4902 18.5176 16.5039 18.5176 15.4688C18.5176 14.4271 18.4199 13.4342 18.2246 12.4902C18.0293 11.5462 17.7624 10.7064 17.4238 9.9707C17.0853 9.23503 16.7012 8.6556 16.2715 8.23242C15.8418 7.80924 15.3958 7.59766 14.9336 7.59766ZM14.2207 6.39648H15.6465V24.4727H14.2207V6.39648ZM14.9336 18.6914C15.9622 18.6914 16.9388 18.776 17.8633 18.9453C18.7878 19.1081 19.6146 19.3424 20.3438 19.6484C21.0729 19.9544 21.6589 20.3125 22.1016 20.7227L21.0078 21.6309C20.5977 21.3118 20.0866 21.0417 19.4746 20.8203C18.8626 20.5924 18.1725 20.4199 17.4043 20.3027C16.6361 20.1855 15.8125 20.127 14.9336 20.127C14.0547 20.127 13.2311 20.1855 12.4629 20.3027C11.6947 20.4199 11.0046 20.5924 10.3926 20.8203C9.7806 21.0417 9.26628 21.3118 8.84961 21.6309L7.75586 20.7227C8.20508 20.3125 8.79427 19.9544 9.52344 19.6484C10.2526 19.3424 11.0794 19.1081 12.0039 18.9453C12.9284 18.776 13.9049 18.6914 14.9336 18.6914ZM23.8398 14.7266V16.1621H6.02734V14.7266H23.8398ZM14.9336 12.2559C13.9049 12.2559 12.9284 12.1745 12.0039 12.0117C11.0794 11.8424 10.2526 11.6048 9.52344 11.2988C8.79427 10.9928 8.20508 10.6348 7.75586 10.2246L8.84961 9.31641C9.26628 9.63542 9.7806 9.90885 10.3926 10.1367C11.0046 10.3581 11.6947 10.5273 12.4629 10.6445C13.2311 10.7617 14.0547 10.8203 14.9336 10.8203C15.8125 10.8203 16.6361 10.7617 17.4043 10.6445C18.1725 10.5273 18.8626 10.3581 19.4746 10.1367C20.0866 9.90885 20.5977 9.63542 21.0078 9.31641L22.1016 10.2246C21.6589 10.6348 21.0729 10.9928 20.3438 11.2988C19.6146 11.6048 18.7878 11.8424 17.8633 12.0117C16.9388 12.1745 15.9622 12.2559 14.9336 12.2559ZM14.9336 25.6348C13.5404 25.6348 12.2285 25.3678 10.998 24.834C9.76758 24.3066 8.68359 23.5742 7.74609 22.6367C6.80859 21.6992 6.07292 20.6185 5.53906 19.3945C5.01172 18.1641 4.74805 16.849 4.74805 15.4492C4.74805 14.056 5.01172 12.7474 5.53906 11.5234C6.07292 10.293 6.80534 9.20898 7.73633 8.27148C8.67383 7.33398 9.75781 6.60156 10.9883 6.07422C12.2188 5.54036 13.5306 5.27344 14.9238 5.27344C16.3171 5.27344 17.6289 5.54036 18.8594 6.07422C20.0964 6.60156 21.1803 7.33398 22.1113 8.27148C23.0488 9.20898 23.7845 10.293 24.3184 11.5234C24.8522 12.7474 25.1191 14.056 25.1191 15.4492C25.1191 16.849 24.8522 18.1641 24.3184 19.3945C23.7845 20.6185 23.0488 21.6992 22.1113 22.6367C21.1803 23.5742 20.0996 24.3066 18.8691 24.834C17.6387 25.3678 16.3268 25.6348 14.9336 25.6348ZM14.9336 23.8965C16.0859 23.8965 17.1699 23.6751 18.1855 23.2324C19.2077 22.7897 20.1061 22.181 20.8809 21.4062C21.6621 20.6315 22.2708 19.7363 22.707 18.7207C23.1497 17.6986 23.3711 16.6081 23.3711 15.4492C23.3711 14.2969 23.1497 13.2129 22.707 12.1973C22.2708 11.1751 21.6621 10.2767 20.8809 9.50195C20.0996 8.72721 19.2012 8.11849 18.1855 7.67578C17.1699 7.23307 16.0827 7.01172 14.9238 7.01172C13.7715 7.01172 12.6842 7.23307 11.6621 7.67578C10.6465 8.11849 9.7513 8.72721 8.97656 9.50195C8.20182 10.2767 7.5931 11.1751 7.15039 12.1973C6.71419 13.2129 6.49609 14.2969 6.49609 15.4492C6.49609 16.6081 6.71419 17.6986 7.15039 18.7207C7.5931 19.7363 8.20182 20.6315 8.97656 21.4062C9.75781 22.181 10.6562 22.7897 11.6719 23.2324C12.694 23.6751 13.7812 23.8965 14.9336 23.8965Z" fill="white"/>
</svg>
