<svg width="30" height="30" viewBox="0 0 30 30" fill="none" xmlns="http://www.w3.org/2000/svg">
<rect width="30" height="30" rx="7" fill="#FF3B30"/>
<path d="M6.73047 21.8457C6.20312 21.8457 5.7832 21.709 5.4707 21.4355C5.16471 21.1621 5.01172 20.8008 5.01172 20.3516C5.01172 19.9935 5.09961 19.6549 5.27539 19.3359C5.45768 19.0169 5.68555 18.7142 5.95898 18.4277C6.23893 18.1348 6.52539 17.8483 6.81836 17.5684C7.05924 17.347 7.24154 17.054 7.36523 16.6895C7.49544 16.3249 7.5931 15.9212 7.6582 15.4785C7.72982 15.0293 7.79167 14.5736 7.84375 14.1113C7.90234 12.9525 8.06836 11.9108 8.3418 10.9863C8.62174 10.0618 9.02865 9.2806 9.5625 8.64258C10.0964 8.00456 10.7799 7.53581 11.6133 7.23633C11.8216 6.5918 12.1862 6.05469 12.707 5.625C13.2279 5.1888 13.8464 4.9707 14.5625 4.9707C15.0898 4.9707 15.5618 5.08789 15.9785 5.32227C15.5944 5.73893 15.2884 6.22396 15.0605 6.77734C14.8392 7.32422 14.7285 7.90365 14.7285 8.51562C14.7285 9.38151 14.9434 10.1758 15.373 10.8984C15.8092 11.6211 16.3854 12.2005 17.1016 12.6367C17.8242 13.0664 18.6217 13.2812 19.4941 13.2812C19.8066 13.2812 20.1061 13.252 20.3926 13.1934C20.6855 13.1283 20.9688 13.0371 21.2422 12.9199C21.2747 13.2129 21.304 13.5124 21.3301 13.8184C21.3626 14.1243 21.3887 14.4336 21.4082 14.7461C21.4408 15.1042 21.4896 15.4622 21.5547 15.8203C21.6198 16.1784 21.7142 16.5137 21.8379 16.8262C21.9616 17.1322 22.1243 17.3796 22.3262 17.5684C22.6191 17.8483 22.9023 18.1348 23.1758 18.4277C23.4557 18.7142 23.6836 19.0169 23.8594 19.3359C24.0417 19.6549 24.1328 19.9935 24.1328 20.3516C24.1328 20.8008 23.9766 21.1621 23.6641 21.4355C23.3581 21.709 22.9414 21.8457 22.4141 21.8457H6.73047ZM14.5723 25.9473C13.9863 25.9473 13.459 25.8203 12.9902 25.5664C12.528 25.319 12.1536 24.987 11.8672 24.5703C11.5807 24.1602 11.418 23.7142 11.3789 23.2324H17.7754C17.7298 23.7142 17.5671 24.1602 17.2871 24.5703C17.0072 24.987 16.6328 25.319 16.1641 25.5664C15.6953 25.8203 15.1647 25.9473 14.5723 25.9473ZM19.5039 11.875C18.8854 11.875 18.3223 11.7253 17.8145 11.4258C17.3066 11.1198 16.8997 10.7129 16.5938 10.2051C16.2943 9.69076 16.1445 9.1276 16.1445 8.51562C16.1445 7.90365 16.2943 7.34375 16.5938 6.83594C16.8997 6.32161 17.3066 5.91471 17.8145 5.61523C18.3223 5.30924 18.8854 5.15625 19.5039 5.15625C20.1159 5.15625 20.6758 5.30924 21.1836 5.61523C21.6979 5.91471 22.1048 6.32161 22.4043 6.83594C22.7103 7.34375 22.8633 7.90365 22.8633 8.51562C22.8633 9.1276 22.7103 9.69076 22.4043 10.2051C22.1048 10.7129 21.6979 11.1198 21.1836 11.4258C20.6758 11.7253 20.1159 11.875 19.5039 11.875Z" fill="white"/>
</svg>
