<svg width="30" height="30" viewBox="0 0 30 30" fill="none" xmlns="http://www.w3.org/2000/svg">
<rect width="30" height="30" rx="7" fill="#34C759"/>
<path d="M10.2891 25.0391C9.53385 25.0391 8.96094 24.834 8.57031 24.4238C8.17969 24.0202 7.98438 23.4082 7.98438 22.5879V15.5273C7.98438 14.7135 8.17969 14.1048 8.57031 13.7012C8.96094 13.2975 9.53385 13.0957 10.2891 13.0957H19.5957C20.3574 13.0957 20.9303 13.2975 21.3145 13.7012C21.7051 14.1048 21.9004 14.7135 21.9004 15.5273V22.5879C21.9004 23.4082 21.7051 24.0202 21.3145 24.4238C20.9303 24.834 20.3574 25.0391 19.5957 25.0391H10.2891ZM9.83008 13.9648V10.8301C9.83008 9.64518 10.0645 8.64583 10.5332 7.83203C11.0085 7.01823 11.6335 6.40299 12.4082 5.98633C13.1829 5.56315 14.026 5.35156 14.9375 5.35156C15.8555 5.35156 16.7018 5.56315 17.4766 5.98633C18.2578 6.40299 18.8828 7.01823 19.3516 7.83203C19.8268 8.64583 20.0645 9.64518 20.0645 10.8301V13.9648H18.0332V10.6738C18.0332 9.95768 17.89 9.34896 17.6035 8.84766C17.3236 8.34635 16.9492 7.96549 16.4805 7.70508C16.0182 7.44466 15.5039 7.31445 14.9375 7.31445C14.3776 7.31445 13.8633 7.44466 13.3945 7.70508C12.9323 7.96549 12.5612 8.34635 12.2812 8.84766C12.0078 9.34896 11.8711 9.95768 11.8711 10.6738V13.9648H9.83008Z" fill="white"/>
</svg>
