<svg width="13" height="13" viewBox="0 0 13 13" fill="none" xmlns="http://www.w3.org/2000/svg">
<path d="M1.75391 12.042C1.48535 12.042 1.27051 11.9468 1.10938 11.7563C0.953125 11.5659 0.875 11.312 0.875 10.9946L0.867676 1.44385C0.867676 1.12646 0.945801 0.872559 1.10205 0.682129C1.26318 0.491699 1.47803 0.396484 1.74658 0.396484C1.89307 0.396484 2.02979 0.425781 2.15674 0.484375C2.28857 0.538086 2.43262 0.601562 2.58887 0.674805L12.0005 5.24512C12.313 5.39648 12.5278 5.54785 12.645 5.69922C12.7622 5.85059 12.8208 6.02393 12.8208 6.21924C12.8208 6.41455 12.7622 6.58789 12.645 6.73926C12.5278 6.89062 12.313 7.04443 12.0005 7.20068L2.58887 11.7637C2.4375 11.8418 2.2959 11.9077 2.16406 11.9614C2.03711 12.0151 1.90039 12.042 1.75391 12.042Z" fill="black"/>
</svg>
