<svg width="30" height="30" viewBox="0 0 30 30" fill="none" xmlns="http://www.w3.org/2000/svg">
<rect width="30" height="30" rx="7" fill="#AF52DE"/>
<path d="M8.51172 19.5308H10.5454C10.7889 19.5308 10.9854 19.4561 11.1348 19.3066C11.2842 19.1572 11.3589 18.9663 11.3589 18.7339V17.1982C11.3589 16.9603 11.2842 16.7694 11.1348 16.6255C10.9854 16.4761 10.7889 16.4014 10.5454 16.4014H8.51172C8.26823 16.4014 8.07178 16.4761 7.92236 16.6255C7.77295 16.7694 7.69824 16.9603 7.69824 17.1982V18.7339C7.69824 18.9663 7.77295 19.1572 7.92236 19.3066C8.07178 19.4561 8.26823 19.5308 8.51172 19.5308ZM5.1167 13.1558H24.6235V11.2715H5.1167V13.1558ZM7.72314 22.104C6.85433 22.104 6.20133 21.8882 5.76416 21.4565C5.33252 21.0304 5.1167 20.3913 5.1167 19.5391V10.4995C5.1167 9.64176 5.33252 8.99984 5.76416 8.57373C6.20133 8.14209 6.85433 7.92627 7.72314 7.92627H22.0171C22.8859 7.92627 23.5361 8.14209 23.9678 8.57373C24.4049 9.00537 24.6235 9.6473 24.6235 10.4995V19.5391C24.6235 20.3913 24.4049 21.0304 23.9678 21.4565C23.5361 21.8882 22.8859 22.104 22.0171 22.104H7.72314Z" fill="white"/>
</svg>
